<svg xmlns="http://www.w3.org/2000/svg" viewBox="0 0 30 30"><defs><style>.cls-1{fill:#fff;opacity:0.9;}.cls-2{fill:#64a0aa;}</style></defs><g id="Layer_2" data-name="Layer 2"><g id="icon"><ellipse class="cls-1" cx="6" cy="5.98" rx="6" ry="5.98"/><path class="cls-2" d="M29.7,12A15.2,15.2,0,0,0,25,3.83,16.88,16.88,0,0,0,16.23.09l-.48,0a15.24,15.24,0,0,0-2,0c-.22,0-.52.05-.86.11a9,9,0,0,1,1.34,9.34A9.09,9.09,0,0,1,6,14.94,9.31,9.31,0,0,1,.17,12.8a.88.88,0,0,1,0,.16A15.41,15.41,0,0,0,.3,18h0A15,15,0,0,0,13.77,30c.41,0,.82.05,1.23.05s.82,0,1.23-.05a16,16,0,0,0,3.2-.62A16.87,16.87,0,0,0,25,26.2,16.07,16.07,0,0,0,30,15,14,14,0,0,0,29.7,12ZM3.32,21.68a12.42,12.42,0,0,1-1.15-2.56,12.69,12.69,0,0,1-.6-3.72,10.58,10.58,0,0,0,2.7.9A10.9,10.9,0,0,0,6,16.44h.5a18.41,18.41,0,0,0,1.13,5.25Zm1.14,1.66H8.34A20.11,20.11,0,0,0,11.49,28,13.49,13.49,0,0,1,4.46,23.34Zm9.79,5a19.25,19.25,0,0,1-4.1-5h4.1Zm0-6.7H9.33A16.46,16.46,0,0,1,8,16.24a10.11,10.11,0,0,0,1.46-.39h4.77Zm0-7.49H12.49a10.85,10.85,0,0,0,1.76-1.76ZM25.54,6.7H21.66a20.19,20.19,0,0,0-3.15-4.62A13.56,13.56,0,0,1,25.54,6.7ZM16.25,2a11,11,0,0,1,2.39,2.7,20.05,20.05,0,0,1,1.21,2H16.47a11,11,0,0,0-.32-3.27,9.9,9.9,0,0,0-.68-1.92A8.43,8.43,0,0,1,16.25,2Zm-.5,7.8a10.62,10.62,0,0,0,.47-1.48h4.45A16.77,16.77,0,0,1,22,14.19H15.75Zm0,6H22a16.77,16.77,0,0,1-1.34,5.83H15.75Zm0,12.53v-5h4.1A19.25,19.25,0,0,1,15.75,28.38ZM18.51,28a20.11,20.11,0,0,0,3.15-4.61h3.88A13.49,13.49,0,0,1,18.51,28Zm8.17-6.27H22.37a18.4,18.4,0,0,0,1.16-5.83h4.93A13.05,13.05,0,0,1,26.68,21.68Zm-3.15-7.49a18.4,18.4,0,0,0-1.16-5.83h4.31a13.05,13.05,0,0,1,1.78,5.83Z"/></g></g></svg>