<svg xmlns="http://www.w3.org/2000/svg" viewBox="0 0 20 20"><defs><style>.cls-1{fill:#fff;opacity:0.25;}</style></defs><g id="Layer_2" data-name="Layer 2"><g id="icon"><path class="cls-1" d="M20,10.9V9.1a1.18,1.18,0,0,0-1-1.17l-1-.16a1.16,1.16,0,0,1-.91-.72h0a1.18,1.18,0,0,1,.13-1.15l.57-.79a1.2,1.2,0,0,0-.12-1.54L16.44,2.29a1.2,1.2,0,0,0-1.54-.12l-.79.57A1.18,1.18,0,0,1,13,2.87h0A1.16,1.16,0,0,1,12.23,2l-.16-1A1.18,1.18,0,0,0,10.9,0H9.1A1.18,1.18,0,0,0,7.93,1L7.77,2a1.16,1.16,0,0,1-.72.91H7a1.18,1.18,0,0,1-1.15-.13L5.1,2.17a1.2,1.2,0,0,0-1.54.12L2.29,3.56A1.2,1.2,0,0,0,2.17,5.1l.57.79A1.18,1.18,0,0,1,2.87,7h0A1.16,1.16,0,0,1,2,7.77L1,7.93A1.18,1.18,0,0,0,0,9.1v1.8a1.18,1.18,0,0,0,1,1.17l1,.16a1.16,1.16,0,0,1,.91.72h0a1.18,1.18,0,0,1-.13,1.15l-.57.79a1.2,1.2,0,0,0,.12,1.54l1.27,1.27a1.2,1.2,0,0,0,1.54.12l.79-.57A1.18,1.18,0,0,1,7,17.13h0a1.16,1.16,0,0,1,.72.91l.16,1A1.18,1.18,0,0,0,9.1,20h1.8a1.18,1.18,0,0,0,1.17-1l.16-1a1.16,1.16,0,0,1,.72-.91h0a1.18,1.18,0,0,1,1.15.13l.79.57a1.2,1.2,0,0,0,1.54-.12l1.27-1.27a1.2,1.2,0,0,0,.12-1.54l-.57-.79A1.18,1.18,0,0,1,17.13,13h0a1.16,1.16,0,0,1,.91-.72l1-.16A1.18,1.18,0,0,0,20,10.9ZM10,14.41A4.41,4.41,0,1,1,14.41,10,4.42,4.42,0,0,1,10,14.41Z"/></g></g></svg>